<svg xmlns="http://www.w3.org/2000/svg" viewBox="0 0 70 70" width="70" height="70">
  <rect width="70" height="70" rx="6" fill="#FF6600"/>
  <g fill="#FFFFFF" transform="translate(0, 1.15)">
    <path d="M25.47 48.06l-17.07 0 0 -3.25c4.92,-3.72 8.28,-6.48 10.05,-8.29 1.78,-1.8 2.67,-3.5 2.67,-5.11 0,-1.15 -0.42,-2.04 -1.25,-2.67 -0.84,-0.62 -1.84,-0.94 -3.02,-0.94 -2.59,0 -4.71,0.94 -6.36,2.83l-2.4 -2.72c1.01,-1.23 2.29,-2.16 3.83,-2.81 1.54,-0.65 3.16,-0.97 4.86,-0.97 2.4,0 4.43,0.65 6.08,1.94 1.65,1.3 2.47,3.07 2.47,5.34 0,2.03 -0.85,4.04 -2.54,6.04 -1.7,2 -4.29,4.32 -7.77,6.96l10.46 0 0 3.64z"/>
    <polygon points="41.7,44.27 38.45,44.27 34.99,39.36 31.52,44.27 28.28,44.27 33.17,37.43 28.56,30.94 31.82,30.94 34.99,35.47 38.14,30.94 41.4,30.94 36.79,37.43"/>
    <path d="M61.17 48.06l-17.07 0 0 -3.25c4.92,-3.72 8.28,-6.48 10.05,-8.29 1.78,-1.8 2.67,-3.5 2.67,-5.11 0,-1.15 -0.42,-2.04 -1.25,-2.67 -0.84,-0.62 -1.84,-0.94 -3.02,-0.94 -2.59,0 -4.71,0.94 -6.36,2.83l-2.4 -2.72c1.01,-1.23 2.29,-2.16 3.83,-2.81 1.54,-0.65 3.16,-0.97 4.86,-0.97 2.4,0 4.43,0.65 6.08,1.94 1.65,1.3 2.47,3.07 2.47,5.34 0,2.03 -0.85,4.04 -2.54,6.04 -1.7,2 -4.29,4.32 -7.77,6.96l10.46 0 0 3.64z"/>
  </g>
</svg>
